HIERARCHY
ROOT Hips
{
	OFFSET -14.64140 90.27770 -84.91600
	CHANNELS 6 Xposition Yposition Zposition Zrotation Xrotation Yrotation
	JOINT Spine
	{
		OFFSET 0.00000 13.20850 -1.60436
		CHANNELS 3 Zrotation Xrotation Yrotation
		JOINT Spine1
		{
			OFFSET 0.00000 8.61716 0.00000
			CHANNELS 3 Zrotation Xrotation Yrotation
			JOINT Spine2
			{
				OFFSET 0.00000 8.61717 0.00000
				CHANNELS 3 Zrotation Xrotation Yrotation
				JOINT Spine3
				{
					OFFSET 0.00000 8.61717 0.00000
					CHANNELS 3 Zrotation Xrotation Yrotation
					JOINT Neck
					{
						OFFSET 0.00000 11.07920 1.10792
						CHANNELS 3 Zrotation Xrotation Yrotation
						JOINT Neck1
						{
							OFFSET 0.00000 7.08032 0.00000
							CHANNELS 3 Zrotation Xrotation Yrotation
							JOINT Head
							{
								OFFSET 0.00000 7.08031 0.00000
								CHANNELS 3 Zrotation Xrotation Yrotation
								End site
								{
									OFFSET 0.00000 0.00000 0.00000
								}
							}
						}
					}
					JOINT RightShoulder
					{
						OFFSET -0.01000 7.91373 5.19711
						CHANNELS 3 Zrotation Xrotation Yrotation
						JOINT RightArm
						{
							OFFSET -18.41580 0.00000 0.00000
							CHANNELS 3 Zrotation Xrotation Yrotation
							JOINT RightForeArm
							{
								OFFSET -29.11090 0.00000 0.00000
								CHANNELS 3 Zrotation Xrotation Yrotation
								JOINT RightHand
								{
									OFFSET -24.65040 0.00000 0.00000
									CHANNELS 3 Zrotation Xrotation Yrotation
									JOINT RightHandThumb1
									{
										OFFSET -5.35114 -0.85590 3.97906
										CHANNELS 3 Zrotation Xrotation Yrotation
										JOINT RightHandThumb2
										{
											OFFSET -4.52789 0.00000 0.00000
											CHANNELS 3 Zrotation Xrotation Yrotation
											JOINT RightHandThumb3
											{
												OFFSET -2.46976 0.00000 0.00000
												CHANNELS 3 Zrotation Xrotation Yrotation
												End site
												{
													OFFSET 0.00000 0.00000 0.00000
												}
											}
										}
									}
									JOINT RightHandIndex1
									{
										OFFSET -14.26970 0.00000 2.88139
										CHANNELS 3 Zrotation Xrotation Yrotation
										JOINT RightHandIndex2
										{
											OFFSET -5.48836 0.00000 0.00000
											CHANNELS 3 Zrotation Xrotation Yrotation
											JOINT RightHandIndex3
											{
												OFFSET -3.01859 0.00000 0.00000
												CHANNELS 3 Zrotation Xrotation Yrotation
												End site
												{
													OFFSET 0.00000 0.00000 0.00000
												}
											}
										}
									}
									JOINT RightHandMiddle1
									{
										OFFSET -14.26970 0.00000 -0.09147
										CHANNELS 3 Zrotation Xrotation Yrotation
										JOINT RightHandMiddle2
										{
											OFFSET -6.17441 0.00000 0.00000
											CHANNELS 3 Zrotation Xrotation Yrotation
											JOINT RightHandMiddle3
											{
												OFFSET -3.56743 0.00000 0.00000
												CHANNELS 3 Zrotation Xrotation Yrotation
												End site
												{
													OFFSET 0.00000 0.00000 0.00000
												}
											}
										}
									}
									JOINT RightHandRing1
									{
										OFFSET -12.69180 0.00000 -3.06433
										CHANNELS 3 Zrotation Xrotation Yrotation
										JOINT RightHandRing2
										{
											OFFSET -5.62556 0.00000 0.00000
											CHANNELS 3 Zrotation Xrotation Yrotation
											JOINT RightHandRing3
											{
												OFFSET -3.56744 0.00000 0.00000
												CHANNELS 3 Zrotation Xrotation Yrotation
												End site
												{
													OFFSET 0.00000 0.00000 0.00000
												}
											}
										}
									}
									JOINT RightHandPinky1
									{
										OFFSET -11.11390 0.00000 -6.03719
										CHANNELS 3 Zrotation Xrotation Yrotation
										JOINT RightHandPinky2
										{
											OFFSET -4.52789 0.00000 0.00000
											CHANNELS 3 Zrotation Xrotation Yrotation
											JOINT RightHandPinky3
											{
												OFFSET -2.46976 0.00000 0.00000
												CHANNELS 3 Zrotation Xrotation Yrotation
												End site
												{
													OFFSET 0.00000 0.00000 0.00000
												}
											}
										}
									}
								}
							}
						}
					}
					JOINT LeftShoulder
					{
						OFFSET 0.01000 7.91373 5.19711
						CHANNELS 3 Zrotation Xrotation Yrotation
						JOINT LeftArm
						{
							OFFSET 18.41580 0.00000 0.00000
							CHANNELS 3 Zrotation Xrotation Yrotation
							JOINT LeftForeArm
							{
								OFFSET 29.11090 0.00000 0.00000
								CHANNELS 3 Zrotation Xrotation Yrotation
								JOINT LeftHand
								{
									OFFSET 24.65040 0.00000 0.00000
									CHANNELS 3 Zrotation Xrotation Yrotation
									JOINT LeftHandThumb1
									{
										OFFSET 5.35114 -0.85590 3.97906
										CHANNELS 3 Zrotation Xrotation Yrotation
										JOINT LeftHandThumb2
										{
											OFFSET 4.52789 0.00000 0.00000
											CHANNELS 3 Zrotation Xrotation Yrotation
											JOINT LeftHandThumb3
											{
												OFFSET 2.46977 0.00000 0.00000
												CHANNELS 3 Zrotation Xrotation Yrotation
												End site
												{
													OFFSET 0.00000 0.00000 0.00000
												}
											}
										}
									}
									JOINT LeftHandIndex1
									{
										OFFSET 14.26970 0.00000 2.88139
										CHANNELS 3 Zrotation Xrotation Yrotation
										JOINT LeftHandIndex2
										{
											OFFSET 5.48836 0.00000 0.00000
											CHANNELS 3 Zrotation Xrotation Yrotation
											JOINT LeftHandIndex3
											{
												OFFSET 3.01859 0.00000 0.00000
												CHANNELS 3 Zrotation Xrotation Yrotation
												End site
												{
													OFFSET 0.00000 0.00000 0.00000
												}
											}
										}
									}
									JOINT LeftHandMiddle1
									{
										OFFSET 14.26970 0.00000 -0.09147
										CHANNELS 3 Zrotation Xrotation Yrotation
										JOINT LeftHandMiddle2
										{
											OFFSET 6.17440 0.00000 0.00000
											CHANNELS 3 Zrotation Xrotation Yrotation
											JOINT LeftHandMiddle3
											{
												OFFSET 3.56744 0.00000 0.00000
												CHANNELS 3 Zrotation Xrotation Yrotation
												End site
												{
													OFFSET 0.00000 0.00000 0.00000
												}
											}
										}
									}
									JOINT LeftHandRing1
									{
										OFFSET 12.69180 0.00000 -3.06433
										CHANNELS 3 Zrotation Xrotation Yrotation
										JOINT LeftHandRing2
										{
											OFFSET 5.62556 0.00000 0.00000
											CHANNELS 3 Zrotation Xrotation Yrotation
											JOINT LeftHandRing3
											{
												OFFSET 3.56744 0.00000 0.00000
												CHANNELS 3 Zrotation Xrotation Yrotation
												End site
												{
													OFFSET 0.00000 0.00000 0.00000
												}
											}
										}
									}
									JOINT LeftHandPinky1
									{
										OFFSET 11.11390 0.00000 -6.03719
										CHANNELS 3 Zrotation Xrotation Yrotation
										JOINT LeftHandPinky2
										{
											OFFSET 4.52789 0.00000 0.00000
											CHANNELS 3 Zrotation Xrotation Yrotation
											JOINT LeftHandPinky3
											{
												OFFSET 2.46976 0.00000 0.00000
												CHANNELS 3 Zrotation Xrotation Yrotation
												End site
												{
													OFFSET 0.00000 0.00000 0.00000
												}
											}
										}
									}
								}
							}
						}
					}
					JOINT pCube4
					{
						OFFSET 0.00000 10.91090 1.10792
						CHANNELS 3 Zrotation Xrotation Yrotation
						End site
						{
							OFFSET 0.00000 0.00000 0.00000
						}
					}
				}
			}
		}
	}
	JOINT RightUpLeg
	{
		OFFSET -9.98441 0.00000 0.00000
		CHANNELS 3 Zrotation Xrotation Yrotation
		JOINT RightLeg
		{
			OFFSET 0.00000 -42.11790 0.00000
			CHANNELS 3 Zrotation Xrotation Yrotation
			JOINT RightFoot
			{
				OFFSET 0.00000 -45.00020 -0.00001
				CHANNELS 3 Zrotation Xrotation Yrotation
				JOINT RightForeFoot
				{
					OFFSET 0.00000 -3.74820 0.00000
					CHANNELS 3 Zrotation Xrotation Yrotation
					JOINT RightToeBase
					{
						OFFSET 0.00000 0.06325 14.43120
						CHANNELS 3 Zrotation Xrotation Yrotation
						End site
						{
							OFFSET 0.00000 0.00000 0.00000
						}
					}
				}
			}
		}
	}
	JOINT LeftUpLeg
	{
		OFFSET 9.98441 0.00000 0.00000
		CHANNELS 3 Zrotation Xrotation Yrotation
		JOINT LeftLeg
		{
			OFFSET 0.00000 -42.11800 0.00000
			CHANNELS 3 Zrotation Xrotation Yrotation
			JOINT LeftFoot
			{
				OFFSET 0.00000 -45.00070 0.00000
				CHANNELS 3 Zrotation Xrotation Yrotation
				JOINT LeftForeFoot
				{
					OFFSET 0.00000 -3.74824 0.00000
					CHANNELS 3 Zrotation Xrotation Yrotation
					JOINT LeftToeBase
					{
						OFFSET 0.00000 0.06325 14.43110
						CHANNELS 3 Zrotation Xrotation Yrotation
						End site
						{
							OFFSET 0.00000 0.00000 0.00000
						}
					}
				}
			}
		}
	}
}
MOTION
Frames: 4
Frame Time: 0.050000
0.0008312728592989904 -0.007319964115126196 -0.0031876911237562347 -0.014421340013821601 0.02313392134281246 0.03922162427759729 -3.629279883823919 6.1320257896924515 -0.68207978842695 -1.0928637115332438 4.111993813744143 0.49032659581006155 -1.0133251859244852 0.7860840174717453 -0.027657469253440554 1.191662491098973 1.0757351772589625 -0.8548938924470217 -0.02921248964222444 9.698545995593102 -1.1857203695421734 -0.47092053718881893 -1.642459134136319 -6.005923904831565 0.04393458675652477 -16.228753135933285 -0.4678190982966035 4.700810365054098 -0.8216988566072324 -14.487358750128468 62.636794977509105 17.402256905814642 12.939553655071146 17.91339268698448 6.202108924974457 94.27495832680798 13.813982684952617 -0.33529071865754223 -7.900631776741588 4.526041572937333 -0.17600944445559322 -1.6008568307666613 -0.002009605724618233 0.04369058262411185 -56.20175811568732 0.0023323215791218395 -0.03149072640236426 -56.27807436049602 -38.74229540674899 -0.02174804539263728 -0.042347084273057126 -0.03175178985376208 0.02199563016618215 -0.009430533256858428 -0.03748947965217139 0.0060817129259642 -0.031253477572687885 -36.671645195721034 0.0366756029870036 -0.0017131430111610847 -0.029435829507260616 -0.019056833921839125 -0.012955945369105121 -0.02896948471177169 -0.014465902032964547 0.04099134857123425 -19.763981837837306 -0.015238231428927114 0.027442919305479735 -0.01155022289353599 0.005116647447217247 -0.033660865659475285 -0.030536708940834052 0.03491176336473139 0.0401782875561905 24.06094185400079 0.0075248812684724446 0.04591794705430725 28.817862904324613 -0.04234235233922143 -0.0047538937390633135 28.833236556393896 -0.026529002294677348 -0.008662579373665043 -4.970357651547529 -0.5088957453925561 12.862373999655777 -62.54439646089574 28.199713285327867 -7.34591398411408 -2.2521749720932025 3.8355526725849156 -63.869087156935464 -13.603613670208615 3.8207692233624733 0.41641536333097057 -0.4949408635085578 0.07936254320794611 -8.127995127947543 0.027229380484422094 -0.049975051319767254 44.53234762638304 -0.04797347884563125 0.014150973677773451 44.563577487107786 12.496374243819334 -0.025593472971529294 0.01880698048068734 0.001524862348442008 -0.014771944110104874 -0.03417717393777251 -0.02296787830142626 0.041234311442223136 0.028959258521242818 11.069575799553629 -0.03247448049552513 -0.016086115443474484 0.024572958011726334 0.030165323584338596 0.04986145919013378 -0.022284880908210607 0.00909767398738915 -0.049826221515709895 4.775830448123479 -0.00495015686237244 0.0030144665583516253 -0.025094528825784345 0.023211904384684567 -0.016143668935609735 -0.025541080376713782 -0.03772526515226941 -0.0286899638049019 -5.5599507333796 0.048631816436695216 0.026009432559483577 -6.708470681254978 -0.00012798601922009109 0.021784682990691348 -6.762722983428345 -0.013936327382277878 0.0198359388371655 0.03555780602472194 -0.044591388346337794 -0.016064867570592056 8.006649090300039 3.4956139104558512 -19.202340293610607 -0.03009121354267366 10.42416001148445 0.02870397624448599 -5.639014711099949 -15.649014144198551 3.1867499976271025 -0.006819165361556997 -0.04862696078448315 0.02488454099481346 -0.012921408877079217 4.723725096664932 0.003984641652033419 12.451061476117275 -8.284347016102195 6.8918008494454135 -0.029743572654063515 46.340983864149294 -0.014746482468252626 -4.3171620042369785 -14.798234294609205 -3.8645448408650243 -0.02770627811697615 -0.03335808257780319 -0.0019714011337268766 -0.016023572731105863 -10.75576215095513 0.018368053027392604 
0.02953496450847877 -0.0021036332065093376 0.039382869622355904 -0.017441224650602896 0.016174486368669132 0.0030617932912025943 -3.5815137960576857 6.3167991958648715 -0.6940268844979876 -1.0198543852441735 4.076541150999018 0.4642199207419536 -0.9832494606440082 0.7247109420976203 -0.07843187594619196 1.1740456192713085 1.0216664854013866 -0.8209558558341401 0.009365373486205066 9.538584353516496 -1.1052001734847936 -0.42716356262052524 -1.7343314664263567 -5.933743393191764 -0.006614670220095535 -16.285951850120085 -0.4230388386542922 4.805975809075122 -0.811932900157195 -14.30405889270546 62.68140260007512 17.014589960977812 12.572888117039161 19.54701845864026 6.6845854857676565 93.86104066362779 14.274540595391851 -0.251494402417923 -8.150820923356541 4.508202327042468 -0.1620310834227508 -1.6207822466437605 0.02336211479428289 0.01697883370201442 -56.2144309464623 0.03570828807116513 -0.013976572589369275 -56.2737417185505 -38.779662004328685 0.04791274756225925 0.009539733450955016 -0.008727866481549414 0.037075992792222706 -0.018847834166676822 0.04617494750992813 0.0016499378514699204 -0.04057311882512071 -36.7283663235686 0.035311644821245214 -0.013859816705069458 -0.0018066706487864933 0.02666601634379672 0.0010811152863535907 0.04503888587463227 0.005036019351402426 0.012617458876832813 -19.73204097218847 -0.04132365597092682 0.03460645283546449 -0.0481932574095242 -0.011366184193981015 -0.03656616810184981 0.02832126299565843 -0.017660012305521805 -0.030522005158755954 24.086661293498295 0.042639946098430026 -0.04110312908277449 28.84021742381104 -0.0418344361406574 0.015814186189534955 28.859093249885998 0.008770453716526693 0.02934251497931931 -4.918520427311606 -0.5217865220921553 12.789264610307457 -62.17067139693341 28.280066513621907 -7.701955845244843 -3.798016438038431 4.410062691277182 -66.32628901589982 -13.95783151756973 3.332374541120462 0.5706200878860832 -0.46157871655143984 0.059130227341737285 -8.101427181917483 -0.0005785869335264873 0.023967882416242783 44.60142722263516 -0.013161752826563448 -0.02830479822635109 44.55624477739975 12.474681515963109 0.015961308560557736 -0.0020123019610235834 0.019621592748197993 0.00868105957905153 0.04383747789346705 -0.012061011722602632 -0.0430784703440323 0.04925913077220321 11.144488705942543 0.008828877666272316 0.03160985075088895 0.0042912105356352126 -0.009087659363618416 -0.022757764430169684 -0.004253449640483189 -0.008941443825892535 0.005216499401751741 4.753407432586008 0.02812319128100011 0.025607745886301526 -0.00964411875360442 -0.027895742402078018 -0.027436643019412354 -0.006656196120496267 -0.009567087516201948 0.02037299729350174 -5.612168170138405 -0.04011378667736443 0.021750511141321427 -6.7149726824719576 0.0004376973212867311 -0.04114476605839483 -6.709340970722691 -0.01773286054368945 0.016150637557851125 0.0033136940312650503 -0.003368958299928112 0.041346603066868784 8.026735855389823 3.513292764731948 -19.19473008728391 0.030389723567003587 10.345349810316844 0.017939621843354445 -5.60550299372968 -15.650801227460265 3.212393973451378 -0.011714929722353452 -0.04117973656271862 -0.04884835805613573 -0.020127624855431632 4.744045187345707 0.00107361667658116 12.427594241363582 -8.24304781255054 6.875741792998869 0.010396034488769726 46.38288705772312 0.03036742145258517 -4.2884812812906 -14.781757434757099 -3.8053251376998607 0.026543318674930736 0.03325248254465788 -0.0009097277960909033 -0.01055732143311302 -10.714681537231787 -0.049797448139163134 
-0.014641365474787664 0.01242349955983663 0.021353785413679233 0.016844001331824492 -0.04090360580695107 0.012211339295061113 -3.4361976843480777 6.2871302275500165 -0.763403638347409 -0.9887088992460277 4.074365576195065 0.45815900802068565 -1.0141371847329728 0.7870043892530744 -0.15459903187045 1.142464770327975 1.0049137169822895 -0.8218294985833398 -0.03283571573305955 9.419461860560475 -1.1085909445749127 -0.41361463790694597 -1.7267718865999775 -5.7238001383151484 0.05328510497205882 -16.36895156984668 -0.432006579209794 4.720097838360428 -0.7449501313109559 -14.254148939270733 63.138173928829595 16.864523127976522 12.096781377479232 21.691507280212875 7.18463486888705 93.86508953571602 14.634969931967456 -0.2957617077700401 -8.261038821329697 4.576045783480745 -0.09631082405548255 -1.5995619644358274 0.027389475884129887 -0.01065689910529847 -56.27966328188578 0.04089973531472728 -0.00942634627209913 -56.26877863440745 -38.778171179781395 0.0110820207394659 -0.0021751407762257893 -0.016957221570210842 -0.024170562958612557 0.04128888992021662 0.0018066927961928093 0.03477210765126009 0.04452873349329953 -36.68969147698735 0.03291075652179253 -0.022149495455558183 -0.005951645999702423 -0.0010050096848704599 0.009562977424194924 0.041504686496856985 0.003796013432628301 -0.04390188889759232 -19.78206031260459 -0.04228333061725201 0.004192206726701389 -0.012641966726163417 0.004777063934983078 -0.00989261334493583 -0.028959014777330663 0.026627715106299764 0.007078250634876282 24.054124771695772 0.001869844719704174 -0.04868064411390045 28.84703827344763 -0.040647114102205915 0.026633705385211433 28.852069896459334 -0.035125512272809724 -0.01445415420471232 -4.670487675948576 -0.44801193313126786 12.60928021113664 -62.1095030303709 28.5009124447484 -8.189924613968403 -5.849890741404541 5.093286781756089 -69.4278571350255 -14.158813102254081 2.732824023109129 0.7830986058657099 -0.46893902546607713 0.06124864451673247 -8.101631139836885 -0.03210192882669564 -0.0496805065745572 44.541701574476605 -0.008609087699167527 0.022834441031732794 44.581263784805756 12.446830105548292 -0.012432259129159977 -0.028999031142909207 0.009763340239431928 0.048273118545617395 -0.013190008028635852 0.024493336468598328 -0.028914519309510677 0.0453430882957264 11.062534747291876 -0.016142903113950256 -0.030704455173405337 0.018181192300364177 -0.004253113529409544 -0.01431947427908267 -0.01003467627214801 0.018667040443980164 -0.03954646659465516 4.803947111607931 -0.0012468747629956628 -0.005329027166398563 -0.01541611588118674 0.0004347657313745816 0.03024303410552534 0.009982844575657289 -0.042408068799761056 0.013949771312601533 -5.597247957059931 -0.019195103168328127 0.029966820281716496 -6.764021323630274 -0.016372140767120007 -0.0206088281159668 -6.682253645250154 0.03910579661871707 -0.007008835833284289 -0.03497184935505931 -0.02151513156525397 -0.001791799947287708 8.085567761084349 3.50985715222523 -19.217380249128333 -0.031324630478132456 10.370202346922097 0.03685767972288312 -5.661066811996479 -15.642659484084797 3.1847073270342015 0.01600592692918123 0.019865487519128238 0.03270140293358112 -0.000679365782552472 4.673056799284449 -0.006099370964679875 12.494100508695631 -8.202607861114242 6.878439384679095 0.012978950446419743 46.42718231821695 -0.02137379294241691 -4.329028167039341 -14.762273346907204 -3.8344845385433755 -0.028865547953623196 -0.009836509477850227 -0.020183549249615813 0.017574736634830924 -10.726418449848596 -0.008715266071298192 
-0.034322662401262534 -0.04070047334108057 0.04845143548314563 0.036811097748829055 0.00499300916899516 -0.0362091704597509 -3.244198577007067 6.238387497743678 -0.7650737474793823 -0.9959199180833054 3.983093093383191 0.4204032778266439 -0.9675742950455782 0.642883618578783 -0.24716779237202469 1.0895473229786892 0.9539634929358553 -0.8425939332336783 -0.15272613563546605 9.472003357873657 -0.9673548482906282 -0.4192439064109776 -1.7804978960574498 -5.504990010684253 0.0111107786912743 -16.425166128196427 -0.3896357070549411 4.552851062748968 -0.7090192775216726 -14.102539828031276 63.56494146388894 16.632694671200507 11.542006197425641 24.046869568193387 7.6520633167758785 94.08329835820516 14.944732058545421 -0.21176289146250232 -8.390647388686158 4.532248960521609 -0.1181245789656321 -1.6093140042210634 0.008987949079535337 0.0133549131006461 -56.18663217091291 0.0196114164372184 -0.02596460631049062 -56.2617491865844 -38.77916950212746 0.0387993027193913 -0.020790086812715488 -0.00016531293007452505 0.021058938120225933 0.0012569069852907408 0.004878878001209279 -0.036683242851622264 -0.006171150621618671 -36.70842339549151 0.028127185580084736 0.01842356421370662 0.01161307535148012 -0.01721316871804229 -0.023465454990409394 0.019806767211021002 -0.01857590680156295 -0.04405077315527649 -19.730091239145143 -0.005720304913759966 -0.006427961960580375 0.005045321983732665 0.007236590329658201 0.029149779527781174 0.030893907005532135 -0.00042229242606446697 -0.012138532693092778 24.04792193836894 0.0013271643922413976 0.04702472206351215 28.82935196681364 -0.0006082515261337874 -0.03347562529685695 28.830016853224066 0.013069538696769849 -0.0428599908488955 -4.1609161586183605 -0.38926180124899634 12.51137930681323 -62.277624491637475 28.688710762928597 -8.849104442319204 -8.045410974441097 5.615666111063534 -73.02276604746457 -14.233643269133301 2.3000829232373907 0.8865075792929895 -0.43607106229143183 0.05287420190456905 -8.157337688676494 -0.044392819810299515 0.020225028395405766 44.613155281360406 -0.023648499739813325 -0.007230220778057972 44.54247761931678 12.443255628367849 0.044300214681542445 -0.035087529996903094 -0.00270997940346144 -0.04352586683287466 0.009783183085316874 0.017845135730704224 0.0013657930582828682 0.03272596485864595 11.095774508904244 0.0362824039221974 -0.03579784392864732 0.031212663094547618 0.0022292964025288613 -0.04114573067140238 0.043228422651825145 -0.029099557555489184 0.030230624163168268 4.766487949717993 0.04293644875217254 0.049250779292659884 0.015669200096036943 -0.02789584868834999 0.03384989357986881 0.0035448194206457438 -0.043373476775131356 0.03857136585135828 -5.5954143460882735 0.02247277324893345 0.014658051395231839 -6.744783084754727 -0.004083554903821756 -0.02369989681526536 -6.745388607806341 -0.016644695248870748 -0.022692585355779504 0.013246587837993479 0.04076129732126925 -0.029277351615067712 8.004366209179237 3.474953559750348 -19.229640620994925 -0.010349671473872748 10.440389344071853 -0.008524828308033326 -5.626530278935118 -15.622761143915687 3.2234830008520823 -0.016831410356795074 0.04111114858589517 0.04095449103070888 -0.01212397650816089 4.702201641583195 -0.004315167472985063 12.45463576927511 -8.242170201571298 6.892672211059554 -0.007795669660251034 46.37284433337082 0.018023645355265287 -4.373370138623904 -14.777870600653362 -3.8086933673953522 0.03334958655681259 0.0391095694292255 -0.006813235111243914 0.01297888519204377 -10.754624811430963 -0.049195849531930826 
